<svg version="1.1" id="Layer_1" xmlns="http://www.w3.org/2000/svg"
	xmlns:xlink="http://www.w3.org/1999/xlink" x="0px" y="0px"
	width="612px" height="792px" viewBox="0 0 612 792" xml:space="preserve">

	<!-- Define the glow filter -->
  <defs>
    <filter id="glow" x="-50%" y="-50%" width="200%" height="200%">
      <feGaussianBlur in="SourceGraphic" stdDeviation="6" result="blur"/>
      <feMerge>
        <feMergeNode in="blur"/>
        <feMergeNode in="SourceGraphic"/>
      </feMerge>
    </filter>
  </defs>

	<!-- Apply the filter to your path -->
  <path
    filter="url(#glow)"
    fill="#0a0a0a"
    fill-rule="evenodd"
    clip-rule="evenodd"
    stroke="#8B6F4E"
    stroke-width="2.9999"
    stroke-linecap="round"
    stroke-linejoin="round"
    stroke-miterlimit="22.9256"
    d="
    M139.188,115.176c-38.02,16.76-62.739,38.712-78.748,64.421c-16.009,25.709-23.307,55.176-23.901,87.609
    c-0.594,32.433,5.518,67.833,28.943,123.898c23.425,56.066,64.165,132.798,103.619,191.83c21.496,32.164,42.61,59.071,62.144,79.735
    c11.158,14.268,22.65,25.246,33.976,33.583c27.686,20.38,54.873,20.38,82.559,0c11.326-8.337,22.818-19.315,33.977-33.583
    c19.533-20.664,40.647-47.571,62.144-79.735c39.454-59.031,80.193-135.764,103.619-191.83
    c23.425-56.065,29.536-91.465,28.942-123.898c-0.593-32.434-7.892-61.9-23.9-87.609c-16.009-25.709-40.729-47.661-78.748-64.421
    C371.842,70.224,241.158,70.224,139.188,115.176z"/>

</svg>